<?xml version="1.0" encoding="utf-8"?>
<!-- Generator: Adobe Illustrator 17.1.0, SVG Export Plug-In . SVG Version: 6.00 Build 0)  -->
<!DOCTYPE svg PUBLIC "-//W3C//DTD SVG 1.1//EN" "http://www.w3.org/Graphics/SVG/1.1/DTD/svg11.dtd">
<svg version="1.1" id="Ebene_1" xmlns="http://www.w3.org/2000/svg" xmlns:xlink="http://www.w3.org/1999/xlink" x="0px" y="0px"
	 viewBox="0 0 25 16.7" enable-background="new 0 0 25 16.7" xml:space="preserve">
<g id="back_1_" transform="translate(-0.001 -85.333)">
	<g id="Group_3" transform="translate(0.001 85.333)">
		<path id="Path_5" fill="#535353" d="M24.5,7.8H1.8l6.9-6.9c0.2-0.2,0.2-0.5,0-0.7C8.5,0,8.2,0,8,0.2L0.2,8c-0.2,0.2-0.2,0.5,0,0.7
			L8,16.5c0.2,0.2,0.5,0.2,0.7,0c0.2-0.2,0.2-0.5,0-0.7c0,0,0,0,0,0L1.8,8.9h22.7c0.3,0,0.5-0.2,0.5-0.5C25,8,24.8,7.8,24.5,7.8
			C24.5,7.8,24.5,7.8,24.5,7.8L24.5,7.8z"/>
	</g>
</g>
</svg>
