<?xml version="1.0" encoding="utf-8"?>
<!-- Generator: Adobe Illustrator 17.1.0, SVG Export Plug-In . SVG Version: 6.00 Build 0)  -->
<!DOCTYPE svg PUBLIC "-//W3C//DTD SVG 1.1//EN" "http://www.w3.org/Graphics/SVG/1.1/DTD/svg11.dtd">
<svg version="1.1" id="Ebene_2" xmlns="http://www.w3.org/2000/svg" xmlns:xlink="http://www.w3.org/1999/xlink" x="0px" y="0px"
	 viewBox="187.5 187.5 25 25" enable-background="new 187.5 187.5 25 25" xml:space="preserve">
<g display="none">
	<g display="inline">
		<g>
			<path fill="#535353" d="M208.9,209.5c-0.1,0-0.3,0-0.5-0.2l-8.4-8.4l-8.4,8.4c-0.1,0.1-0.4,0.2-0.5,0.2c-0.1,0-0.3,0-0.5-0.2
				c-0.2-0.2-0.2-0.7,0-0.9l8.4-8.4l-8.4-8.4c-0.2-0.2-0.2-0.7,0-0.9c0.1-0.1,0.4-0.2,0.5-0.2c0.1,0,0.3,0,0.5,0.2l8.4,8.4l8.4-8.4
				c0.1-0.1,0.4-0.2,0.5-0.2c0.1,0,0.3,0,0.5,0.2c0.2,0.2,0.2,0.7,0,0.9l-8.4,8.4l8.4,8.4c0.2,0.2,0.2,0.7,0,0.9
				C209.2,209.5,209,209.5,208.9,209.5z"/>
		</g>
	</g>
</g>
<line fill="none" stroke="#535353" stroke-width="2" stroke-linecap="round" stroke-linejoin="round" stroke-miterlimit="10" x1="191.6" y1="191.6" x2="208.4" y2="208.4"/>
<line fill="none" stroke="#535353" stroke-width="2" stroke-linecap="round" stroke-linejoin="round" stroke-miterlimit="10" x1="208.4" y1="191.6" x2="191.6" y2="208.4"/>
</svg>
