<?xml version="1.0" encoding="utf-8"?>
<!-- Generator: Adobe Illustrator 17.1.0, SVG Export Plug-In . SVG Version: 6.00 Build 0)  -->
<!DOCTYPE svg PUBLIC "-//W3C//DTD SVG 1.1//EN" "http://www.w3.org/Graphics/SVG/1.1/DTD/svg11.dtd">
<svg version="1.1" xmlns="http://www.w3.org/2000/svg" xmlns:xlink="http://www.w3.org/1999/xlink" x="0px" y="0px"
	 viewBox="0 0 25 25" enable-background="new 0 0 25 25" xml:space="preserve">
<g id="Ebene_2">
	<g>
		<path fill="#545454" d="M23.8,5.8c0-0.5-0.3-0.9-0.7-0.9H1.9c-0.4,0-0.7,0.4-0.7,0.9l0,0c0,0.5,0.3,0.9,0.7,0.9h21.2
			C23.5,6.7,23.8,6.3,23.8,5.8L23.8,5.8z"/>
		<path fill="#545454" d="M23.8,12.5c0-0.5-0.3-0.9-0.7-0.9H1.9c-0.4,0-0.7,0.4-0.7,0.9l0,0c0,0.5,0.3,0.9,0.7,0.9h21.2
			C23.5,13.4,23.8,13,23.8,12.5L23.8,12.5z"/>
		<path fill="#545454" d="M23.8,19.2c0-0.5-0.3-0.9-0.7-0.9H1.9c-0.4,0-0.7,0.4-0.7,0.9l0,0c0,0.5,0.3,0.9,0.7,0.9h21.2
			C23.5,20.1,23.8,19.7,23.8,19.2L23.8,19.2z"/>
	</g>
</g>
</svg>
